<svg height="504pt" viewBox="0 -100 504.17278 504" width="504pt" xmlns="http://www.w3.org/2000/svg"><path d="m99.292969 182.785156c-13.511719 21.359375-15.273438 121.761719-15.273438 121.761719h-16s-3.992187-114.585937-65.527343-182.960937c0-.007813 53.601562 42.152343 96.800781 61.199218zm0 0" fill="#da4453"/><path d="m384.171875 200.539062s120 26 120 48c0 40-219.511719 68-232 51.039063-62.230469-64.238281-124-95.359375-172.871094-116.800781-43.199219-19.046875-83.777343-23.910156-96.398437-60.40625-.242188-.554688-.410156-.800782-.410156-.800782-8.230469-23.28125 3.367187-57.761718 43.128906-119.601562 13.757812-21.359375 154.71875 145.042969 217.191406 190.5625 62.480469 45.527344 121.359375 8.007812 121.359375 8.007812zm0 0" fill="#ed5565"/></svg>