<svg height="493pt" viewBox="0 -28 493.02768 493" width="493pt" xmlns="http://www.w3.org/2000/svg"><path d="m431.628906 206.769531c-42.054687 23.652344-94.734375 16.183594-128.5625-18.21875-33.824218-34.398437-40.394531-87.203125-16.039062-128.847656 24.359375-41.644531 73.601562-61.800781 120.167968-49.183594 46.566407 12.617188 78.898438 54.875 78.902344 103.121094.109375 38.632813-20.742187 74.289063-54.46875 93.128906zm2.378906-104.65625c-.101562-22.113281-13.476562-42-33.921874-50.425781-20.441407-8.425781-43.945313-3.746094-59.597657 11.875-17.097656 17.164062-20.917969 43.503906-9.402343 64.820312 2.523437 4.652344 5.6875 8.933594 9.402343 12.707032l38.640625 38.640625 38.636719-38.640625c10.390625-10.3125 16.234375-24.339844 16.242187-38.976563zm0 0" fill="#00efd1"/><path d="m431.628906 206.769531v223.433594h-118.820312v-232.730469l.089844-.109375c34 26.9375 80.910156 30.65625 118.730468 9.40625zm0 0" fill="#fedb41"/><path d="m418.015625 63.5625c10.253906 10.207031 16.007813 24.082031 15.992187 38.550781-.007812 14.636719-5.851562 28.664063-16.242187 38.976563l-38.636719 38.640625-38.640625-38.640625c-3.714843-3.773438-6.878906-8.054688-9.402343-12.707032-12.910157-23.929687-6.328126-53.707031 15.46875-69.957031 21.796874-16.253906 52.214843-14.066406 71.460937 5.136719zm-9.289063 37.109375c0-16.347656-13.253906-29.601563-29.597656-29.601563-16.347656 0-29.601562 13.253907-29.601562 29.601563s13.253906 29.597656 29.601562 29.597656c16.34375 0 29.597656-13.25 29.597656-29.597656zm0 0" fill="#00acea"/><path d="m408.726562 100.671875c0 16.347656-13.253906 29.597656-29.597656 29.597656-16.347656 0-29.601562-13.25-29.601562-29.597656s13.253906-29.601563 29.601562-29.601563c16.34375 0 29.597656 13.253907 29.597656 29.601563zm0 0" fill="#fedb41"/><path d="m312.898438 197.363281-.089844.109375v232.730469h-170.523438v-393.132813h162.460938c-22.023438 21.429688-33.75 51.300782-32.191406 81.988282 1.5625 30.6875 16.257812 59.21875 40.34375 78.304687zm0 0" fill="#00acea"/><path d="m7.027344 385.0625h135.257812v45.140625h-135.257812zm0 0" fill="#fedb41"/><path d="m7.027344 341.339844h135.257812v43.722656h-135.257812zm0 0" fill="#00efd1"/><path d="m7.027344 297.613281h135.257812v43.726563h-135.257812zm0 0" fill="#fedb41"/><path d="m142.285156 188.820312v108.792969h-135.257812v-48.09375h53.929687v-60.699219zm0 0" fill="#00efd1"/><g fill="#083863"><path d="m361.078125 281.5h-24.480469c-3.867187 0-7 3.136719-7 7 0 3.867188 3.132813 7 7 7h24.480469c3.863281 0 7-3.132812 7-7 0-3.863281-3.136719-7-7-7zm0 0"/><path d="m361.078125 325.5h-24.480469c-3.867187 0-7 3.136719-7 7 0 3.867188 3.132813 7 7 7h24.480469c3.863281 0 7-3.132812 7-7 0-3.863281-3.136719-7-7-7zm0 0"/><path d="m361.078125 368.5h-24.480469c-3.867187 0-7 3.136719-7 7 0 3.867188 3.132813 7 7 7h24.480469c3.863281 0 7-3.132812 7-7 0-3.863281-3.136719-7-7-7zm0 0"/><path d="m270.488281 222.410156c3.863281 0 7-3.132812 7-7v-27.980468c0-3.863282-3.136719-7-7-7-3.867187 0-7 3.136718-7 7v27.980468c0 3.867188 3.132813 7 7 7zm0 0"/><path d="m226.488281 222.410156c3.863281 0 7-3.132812 7-7v-27.980468c0-3.863282-3.136719-7-7-7-3.867187 0-7 3.136718-7 7v27.980468c0 3.867188 3.132813 7 7 7zm0 0"/><path d="m182.488281 222.410156c3.863281 0 7-3.132812 7-7v-27.980468c0-3.863282-3.136719-7-7-7-3.867187 0-7 3.136718-7 7v27.980468c0 3.867188 3.132813 7 7 7zm0 0"/><path d="m361.078125 237.5h-24.480469c-3.867187 0-7 3.136719-7 7 0 3.867188 3.132813 7 7 7h24.480469c3.863281 0 7-3.132812 7-7 0-3.863281-3.136719-7-7-7zm0 0"/><path d="m410.597656 281.5h-24.492187c-3.863281 0-7 3.136719-7 7 0 3.867188 3.136719 7 7 7h24.492187c3.867188 0 7-3.132812 7-7 0-3.863281-3.132812-7-7-7zm0 0"/><path d="m410.597656 325.5h-24.492187c-3.863281 0-7 3.136719-7 7 0 3.867188 3.136719 7 7 7h24.492187c3.867188 0 7-3.132812 7-7 0-3.863281-3.132812-7-7-7zm0 0"/><path d="m410.597656 368.5h-24.492187c-3.863281 0-7 3.136719-7 7 0 3.867188 3.136719 7 7 7h24.492187c3.867188 0 7-3.132812 7-7 0-3.863281-3.132812-7-7-7zm0 0"/><path d="m410.597656 237.5h-24.492187c-3.863281 0-7 3.136719-7 7 0 3.867188 3.136719 7 7 7h24.492187c3.867188 0 7-3.132812 7-7 0-3.863281-3.132812-7-7-7zm0 0"/><path d="m226.488281 148.441406c3.863281 0 7-3.132812 7-7v-27.988281c0-3.867187-3.136719-7-7-7-3.867187 0-7 3.132813-7 7v27.988281c0 3.867188 3.132813 7 7 7zm0 0"/><path d="m182.488281 148.441406c3.863281 0 7-3.132812 7-7v-27.988281c0-3.867187-3.136719-7-7-7-3.867187 0-7 3.132813-7 7v27.988281c0 3.867188 3.132813 7 7 7zm0 0"/><path d="m270.488281 296.390625c3.863281 0 7-3.132813 7-7v-27.980469c0-3.863281-3.136719-7-7-7-3.867187 0-7 3.136719-7 7v27.980469c0 3.867187 3.132813 7 7 7zm0 0"/><path d="m226.488281 296.390625c3.863281 0 7-3.132813 7-7v-27.980469c0-3.863281-3.136719-7-7-7-3.867187 0-7 3.136719-7 7v27.980469c0 3.867187 3.132813 7 7 7zm0 0"/><path d="m182.488281 296.390625c3.863281 0 7-3.132813 7-7v-27.980469c0-3.863281-3.136719-7-7-7-3.867187 0-7 3.136719-7 7v27.980469c0 3.867187 3.132813 7 7 7zm0 0"/><path d="m270.488281 370.371094c3.863281 0 7-3.132813 7-7v-27.988282c0-3.867187-3.136719-7-7-7-3.867187 0-7 3.132813-7 7v27.988282c0 3.867187 3.132813 7 7 7zm0 0"/><path d="m226.488281 370.371094c3.863281 0 7-3.132813 7-7v-27.988282c0-3.867187-3.136719-7-7-7-3.867187 0-7 3.132813-7 7v27.988282c0 3.867187 3.132813 7 7 7zm0 0"/><path d="m182.488281 370.371094c3.863281 0 7-3.132813 7-7v-27.988282c0-3.867187-3.136719-7-7-7-3.867187 0-7 3.132813-7 7v27.988282c0 3.867187 3.132813 7 7 7zm0 0"/><path d="m379.257812.015625c-28.738281-.195313-56.433593 10.726563-77.300781 30.484375h-159.671875c-1.789062-.089844-3.535156.566406-4.824218 1.8125-1.285157 1.246094-2.003907 2.96875-1.972657 4.757812v144.429688h-74.53125c-4.019531.113281-7.277343 3.304688-7.46875 7.320312v53.679688h-46.460937c-3.867188 0-6.539063 3.15625-6.539063 7.019531v46.648438c-1 .46875-.152343.949219-.152343 1.445312 0 .492188-.847657.972657.152343 1.441407v40.847656c-1 .464844-.152343.945312-.152343 1.441406s-.847657.976562.152343 1.441406v40.835938c-1 .464844-.152343.949218-.152343 1.441406 0 .496094-.847657.976562.152343 1.4375v43.703125c0 3.863281 2.671875 7.296875 6.539063 7.296875h424.601562c3.894532-.152344 6.945313-3.402344 6.859375-7.296875v-219.433594c43.53125-26.511719 64.089844-78.765625 50.300781-127.835937-13.792968-49.070313-58.5625-82.9609378-109.53125-82.917969zm-229.769531 44.484375h139.640625c-14.410156 18.363281-22.648437 40.808594-23.542968 64.132812-1.351563 1.234376-2.113282 2.988282-2.097657 4.820313v27.988281c-.011719 1.851563.714844 3.632813 2.023438 4.945313 1.304687 1.3125 3.078125 2.054687 4.929687 2.054687.078125-.003906.152344-.011718.230469-.019531 6.425781 20.121094 18.816406 38.183594 34.816406 52.179687v222.898438h-156zm-14 290h-121v-30h121zm-121 14h121v30h-121zm46.46875-92c3.867188 0 6.53125-3.113281 6.53125-6.980469v-54.019531h68v95h-121v-34zm-46.46875 136h121v31h-121zm305 31v-212.765625c31.726563 19.363281 70.890625 22.09375 105 7.3125v205.453125zm108.699219-222.828125c-14.941406 8.398437-31.792969 12.804687-48.933594 12.800781-22.527344.085938-44.40625-7.535156-62.007812-21.59375-34.421875-27.292968-46.953125-73.882812-30.871094-114.761718 16.082031-40.882813 56.996094-66.445313 100.789062-62.972657 43.792969 3.476563 80.167969 35.167969 89.605469 78.074219 9.433594 42.902344-10.285156 86.933594-48.582031 108.460938zm0 0"/><path d="m379.257812 40.550781c-21.789062-.035156-41.984374 11.425781-53.128906 30.148438-11.144531 18.726562-11.585937 41.941406-1.164062 61.078125 2.835937 5.226562 6.394531 10.03125 10.570312 14.265625l38.640625 38.636719c2.734375 2.734374 7.167969 2.734374 9.902344 0l38.640625-38.636719c11.71875-11.613281 18.304688-27.433594 18.289062-43.929688-.039062-34.058593-27.695312-61.628906-61.75-61.5625zm33.558594 95.589844-33.6875 33.691406-33.691406-33.691406c-3.234375-3.289063-5.988281-7.015625-8.183594-11.070313-11.828125-21.65625-5.230468-48.753906 15.226563-62.546874 20.457031-13.792969 48.054687-9.75 63.695312 9.332031 15.636719 19.082031 14.183594 46.933593-3.359375 64.285156zm0 0"/><path d="m379.128906 64.070312c-20.214844 0-36.601562 16.386719-36.601562 36.601563s16.386718 36.597656 36.601562 36.597656c20.210938 0 36.597656-16.382812 36.597656-36.597656-.023437-20.203125-16.394531-36.578125-36.597656-36.601563zm0 59.199219c-12.484375 0-22.601562-10.117187-22.601562-22.597656s10.117187-22.601563 22.601562-22.601563c12.480469 0 22.597656 10.121094 22.597656 22.601563-.011718 12.476563-10.125 22.585937-22.597656 22.597656zm0 0"/></g></svg>