<svg height="512pt" viewBox="0 0 512 512.00003" width="512pt" xmlns="http://www.w3.org/2000/svg"><path d="m512 256c0 141.386719-114.613281 256-256 256s-256-114.613281-256-256 114.613281-256 256-256 256 114.613281 256 256zm0 0" fill="#02c6dc"/><path d="m244.097656 142.492188c0-13.804688 11.191406-25 25-25 8.179688 0 15.4375 3.929687 20 10 4.5625-6.070313 11.820313-10 20-10 13.808594 0 25 11.195312 25 25 0 12.304687-8.886718 22.523437-20.589844 24.605468.382813 1.738282.589844 3.542969.589844 5.394532 0 13.808593-11.191406 25-25 25s-25-11.191407-25-25c0-1.851563.207032-3.65625.589844-5.394532-11.703125-2.082031-20.589844-12.300781-20.589844-24.605468zm0 0" fill="#fdb44c"/><path d="m244.152344 160.324219c.835937-12.800781 11.527344-23.019531 24.351562-23.316407 6.800782-.15625 13.003906 2.398438 17.597656 6.667969 1.699219 1.574219 4.296876 1.574219 5.992188 0 4.597656-4.265625 10.796875-6.824219 17.597656-6.667969 12.824219.296876 23.515625 10.511719 24.351563 23.316407.851562 13.039062-8.304688 24.101562-20.535157 26.28125.382813 1.738281.589844 3.542969.589844 5.394531 0 14.496094-12.335937 26.113281-27.085937 24.917969-10.894531-.886719-20.070313-8.976563-22.355469-19.667969-.792969-3.714844-.703125-7.300781.03125-10.644531-12.230469-2.179688-21.386719-13.242188-20.535156-26.28125zm0 0" fill="#fdc273"/><path d="m303.9375 214.277344c-1.5-.957032-2.921875-2.085938-4.234375-3.394532-9.761719-9.765624-9.761719-25.59375 0-35.355468 9.765625-9.765625 25.59375-9.765625 35.355469 0 1.308594 1.308594 2.4375 2.730468 3.398437 4.230468 9.75-6.800781 23.257813-5.859374 31.957031 2.839844 8.699219 8.699219 9.640626 22.207032 2.839844 31.957032 1.5.960937 2.921875 2.085937 4.230469 3.398437 9.765625 9.761719 9.765625 25.59375 0 35.355469-9.761719 9.761718-25.589844 9.761718-35.351563 0-1.3125-1.3125-2.441406-2.734375-3.398437-4.234375-9.75 6.800781-23.261719 5.859375-31.960937-2.835938-8.695313-8.699219-9.636719-22.210937-2.835938-31.960937zm0 0" fill="#fdb44c"/><path d="m295.472656 193.066406c6.800782 9.75 5.859375 23.257813-2.839844 31.957032-8.695312 8.699218-22.207031 9.640624-31.957031 2.839843-.957031 1.5-2.085937 2.921875-3.398437 4.230469-9.761719 9.761719-25.589844 9.761719-35.355469 0-9.761719-9.761719-9.761719-25.589844 0-35.355469 1.3125-1.308593 2.734375-2.4375 4.234375-3.394531-6.800781-9.75-5.859375-23.261719 2.835938-31.960938 8.699218-8.699218 22.210937-9.640624 31.960937-2.835937.957031-1.5 2.085937-2.921875 3.398437-4.234375 9.761719-9.761719 25.589844-9.761719 35.351563 0 9.765625 9.761719 9.765625 25.59375 0 35.355469-1.308594 1.3125-2.730469 2.4375-4.230469 3.398437zm96.15625 95.597656c-1.3125-1.3125-2.734375-2.4375-4.234375-3.398437 6.800781-9.75 5.859375-23.257813-2.835937-31.957031-8.699219-8.699219-22.210938-9.640625-31.960938-2.839844-.957031-1.5-2.085937-2.921875-3.398437-4.230469-9.761719-9.765625-25.589844-9.765625-35.351563 0-9.765625 9.761719-9.765625 25.589844 0 35.355469 1.308594 1.308594 2.730469 2.4375 4.230469 3.394531-6.800781 9.75-5.859375 23.261719 2.839844 31.960938 8.695312 8.695312 22.207031 9.640625 31.957031 2.835937.957031 1.5 2.085938 2.921875 3.398438 4.234375 9.761718 9.761719 25.589843 9.761719 35.355468 0 9.761719-9.761719 9.761719-25.59375 0-35.355469zm0 0" fill="#ffdf8e"/><path d="m369.558594 61.371094c-4.367188 13.101562-18.523438 20.179687-31.621094 15.8125-1.757812-.585938-3.40625-1.355469-4.933594-2.265625-5.679687 10.441406-18.183594 15.644531-29.851562 11.753906-11.671875-3.890625-18.554688-15.554687-16.832032-27.316406-1.769531-.183594-3.546874-.558594-5.304687-1.144531-13.101563-4.367188-20.179687-18.523438-15.8125-31.621094 4.367187-13.101563 18.523437-20.179688 31.621094-15.8125 1.761719.585937 3.40625 1.351562 4.933593 2.265625 5.679688-10.445313 18.183594-15.644531 29.851563-11.753907 11.671875 3.890626 18.554687 15.554688 16.832031 27.3125 1.769532.1875 3.546875.5625 5.304688 1.148438 13.101562 4.367188 20.179687 18.523438 15.8125 31.621094zm-119.351563 57.585937c-9.761719-9.761719-25.59375-9.761719-35.355469 0-1.3125 1.3125-2.4375 2.734375-3.398437 4.234375-9.75-6.804687-23.257813-5.863281-31.957031 2.835938-9.761719 9.765625-9.761719 25.59375 0 35.355468 5.78125 5.785157 13.695312 8.140626 21.214844 7.070313-1.070313 7.519531 1.285156 15.429687 7.070312 21.214844 9.761719 9.761719 25.589844 9.761719 35.355469 0 8.699219-8.699219 9.640625-22.210938 2.835937-31.957031 1.5-.960938 2.921875-2.089844 4.234375-3.398438 9.761719-9.761719 9.761719-25.589844 0-35.355469zm0 0" fill="#fff2b4"/><path d="m368.621094 63.773438c-4.394532 9.796874-14.800782 15.714843-25.472656 14.546874-3.796876-.417968-7.191407-1.640624-10.144532-3.402343-5.679687 10.441406-18.183594 15.640625-29.851562 11.753906-11.671875-3.890625-18.554688-15.554687-16.832032-27.316406-3.378906-.355469-6.785156-1.394531-10.035156-3.292969-9.40625-5.488281-14.21875-16.6875-11.703125-27.285156 1.132813-4.785156 3.535157-8.863282 6.726563-12.027344 2.265625 7.515625 8.019531 13.851562 16.03125 16.519531.019531.007813.035156.011719.054687.019531 2.777344.917969 4.859375 3.316407 5.035157 6.234376.601562 9.886718 7.078124 18.882812 17.046874 22.207031 9.972657 3.324219 20.550782.011719 26.964844-7.535157 1.882813-2.21875 4.972656-2.914062 7.730469-1.980468.03125.007812.0625.019531.09375.027344 9.253906 3.085937 19.03125.453124 25.515625-5.972657 1.664062 5.527344 1.449219 11.6875-1.160156 17.503907zm-120.664063 53.183593c-7.96875-6.304687-19.199219-7.074219-27.96875-1.949219-3.691406 2.152344-6.496093 4.996094-8.535156 8.183594-9.75-6.800781-23.257813-5.859375-31.957031 2.835938-7.648438 7.652344-9.304688 19.023437-4.964844 28.285156 1.195312-2.558594 2.851562-4.957031 4.964844-7.070312 7.765625-7.765626 19.367187-9.347657 28.703125-4.757813 1.890625.929687 4.183593.414063 5.574219-1.164063 1.449218-1.648437 3.15625-3.144531 5.140624-4.4375 9.027344-5.878906 21.050782-5.257812 29.386719 1.566407 3.046875 2.492187 5.335938 5.511719 6.871094 8.792969 4.734375-10.109376 2.332031-22.734376-7.214844-30.285157zm0 0" fill="#ffe899"/><path d="m284.527344 284.34375c-13.808594 0-25-11.191406-25-25 0-8.179688 3.925781-15.4375 10-20-6.074219-4.5625-10-11.820312-10-20 0-13.808594 11.191406-25 25-25 12.300781 0 22.519531 8.886719 24.601562 20.589844 1.738282-.382813 3.542969-.589844 5.398438-.589844 13.804687 0 25 11.191406 25 25s-11.195313 25-25 25c-1.855469 0-3.660156-.207031-5.398438-.589844-2.082031 11.703125-12.300781 20.589844-24.601562 20.589844zm0 0" fill="#fff2b4"/><path d="m400 154.5625c0 13.808594-11.191406 25-25 25-1.855469 0-3.65625-.207031-5.394531-.589844-2.085938 11.703125-12.304688 20.589844-24.605469 20.589844-13.808594 0-25-11.191406-25-25 0-8.175781 3.929688-15.4375 10-20-6.070312-4.558594-10-11.820312-10-20 0-13.804688 11.191406-25 25-25 12.300781 0 22.519531 8.890625 24.605469 20.589844 1.738281-.382813 3.539062-.589844 5.394531-.589844 13.808594 0 25 11.195312 25 25zm90.285156-1.558594c.382813-1.738281.589844-3.542968.589844-5.394531 0-13.808594-11.195312-25-25-25-13.808594 0-25 11.191406-25 25 0 1.851563.207031 3.65625.589844 5.394531-11.703125 2.085938-20.589844 12.304688-20.589844 24.605469 0 13.804687 11.191406 25 25 25 8.175781 0 15.4375-3.929687 20-10 4.558594 6.070313 11.820312 10 20 10 13.804688 0 25-11.195313 25-25 0-12.300781-8.886719-22.519531-20.589844-24.605469zm0 0" fill="#ffe899"/><path d="m399.921875 156.570312c-.851563 10.90625-8.921875 20.105469-19.613281 22.421876-3.734375.808593-7.339844.722656-10.703125-.019532-1.441407 8.09375-6.777344 14.839844-14 18.230469-8.503907-3.992187-14.390625-12.625-14.390625-22.636719 0-6.816406 2.726562-12.996094 7.148437-17.503906 1.347657-1.375 1.347657-3.621094 0-4.996094-4.421875-4.507812-7.148437-10.6875-7.148437-17.5 0-10.015625 5.886718-18.648437 14.390625-22.640625 7.222656 3.390625 12.558593 10.132813 14 18.230469 1.738281-.382812 3.542969-.589844 5.394531-.589844 14.46875-.003906 26.070312 12.292969 24.921875 27.003906zm90.363281-3.566406c.726563-3.308594.820313-6.855468.058594-10.53125-2.21875-10.691406-11.351562-18.820312-22.230469-19.765625-14.816406-1.289062-27.238281 10.355469-27.238281 24.902344 0 1.851563.207031 3.65625.589844 5.394531-8.09375 1.441406-14.835938 6.777344-18.230469 14 3.992187 8.5 12.625 14.390625 22.640625 14.390625 6.671875 0 12.734375-2.617187 17.21875-6.875 1.554688-1.480469 4.007812-1.480469 5.5625 0 4.480469 4.257813 10.542969 6.875 17.21875 6.875 10.011719 0 18.644531-5.886719 22.636719-14.390625-3.390625-7.222656-10.132813-12.558594-18.226563-14zm0 0" fill="#fff2b4"/><path d="m370.1875 309.648438c11.902344 11.90625 11.042969 31.453124-1.859375 42.261718l-180.199219 150.976563c-86.824218-23.8125-155.199218-92.191407-179.015625-179.015625l150.976563-180.199219c10.808594-12.902344 30.359375-13.761719 42.261718-1.859375 11.199219 11.199219 11.199219 29.359375 0 40.558594 11.199219-11.199219 53.625 31.226562 42.425782 42.425781 11.199218-11.199219 29.359375-11.199219 40.558594 0l1.867187 1.867187c11.199219 11.199219 11.199219 29.359376 0 40.558594 11.199219-11.199218 53.625 31.226563 42.425781 42.425782 11.199219-11.199219 29.359375-11.199219 40.558594 0zm0 0" fill="#fd6c55"/><path d="m202.351562 141.8125c.011719.011719.023438.027344.035157.039062-4.386719 2.046876-8.488281 5.097657-11.914063 9.113282l-171.773437 201.214844c-3.722657-9.183594-6.933594-18.632813-9.585938-28.3125l150.976563-180.195313c10.808594-12.902344 30.355468-13.761719 42.261718-1.859375zm0 0" fill="#fc544d"/><path d="m329.628906 309.648438-179.496094 179.496093c-18.90625-8.597656-36.582031-19.429687-52.695312-32.15625l189.765625-189.765625c11.199219-11.199218 29.359375-11.199218 40.558594 0l1.867187 1.867188c11.199219 11.203125 11.199219 29.359375 0 40.558594zm-84.851562-125.410157-1.867188-1.867187c-11.199218-11.199219-29.359375-11.199219-40.558594 0l-179.496093 179.496094c8.597656 18.90625 19.429687 36.582031 32.15625 52.695312l189.765625-189.765625c11.199218-11.199219 11.199218-29.359375 0-40.558594zm0 0" fill="#ffa799"/></svg>